<?xml version="1.0" standalone="no"?>
<!DOCTYPE svg PUBLIC "-//W3C//DTD SVG 20010904//EN"
 "http://www.w3.org/TR/2001/REC-SVG-20010904/DTD/svg10.dtd">
<svg version="1.0" xmlns="http://www.w3.org/2000/svg"
 width="1000.000000pt" height="1000.000000pt" viewBox="0 0 1000.000000 1000.000000"
 preserveAspectRatio="xMidYMid meet">
<metadata>
Created by potrace 1.14, written by Peter Selinger 2001-2017
</metadata>
<g transform="translate(0.000000,1000.000000) scale(0.100000,-0.100000)"
fill="#000000" stroke="none">
<path d="M6725 5643 c-104 -36 -169 -79 -245 -159 -95 -102 -145 -215 -156
-354 -20 -244 130 -476 371 -572 74 -30 89 -32 200 -33 134 0 210 19 299 75
l46 30 0 75 0 75 -50 -39 c-184 -146 -420 -141 -587 12 -110 101 -159 224
-151 377 5 79 10 101 43 166 67 137 193 232 339 256 115 19 246 -16 349 -95
26 -21 50 -37 53 -37 2 0 4 32 2 72 -3 72 -3 72 -43 99 -78 52 -151 72 -275
76 -106 3 -122 2 -195 -24z"/>
<path d="M7440 5288 c1 -499 9 -548 109 -648 223 -223 625 -117 681 179 6 31
10 221 10 442 l0 389 -60 0 -60 0 0 -357 c-1 -197 -5 -389 -9 -426 -13 -101
-49 -153 -135 -197 -57 -29 -77 -34 -134 -34 -129 1 -238 78 -261 185 -7 31
-11 201 -11 439 l0 390 -65 0 -65 0 0 -362z"/>
<path d="M8460 5095 l0 -557 203 4 c183 4 208 6 261 27 82 33 149 98 177 170
55 145 -21 334 -154 382 l-35 12 34 34 c51 51 67 96 68 188 0 130 -50 211
-164 264 -51 24 -68 26 -222 29 l-168 4 0 -557z m347 418 c60 -29 77 -63 81
-151 4 -98 -15 -137 -81 -170 -37 -19 -64 -24 -132 -25 -46 -1 -85 1 -85 6 0
4 0 89 0 188 l0 182 90 -6 c57 -4 104 -13 127 -24z m-22 -464 c145 -20 209
-80 208 -193 -1 -96 -29 -137 -118 -177 -42 -19 -69 -23 -168 -23 l-118 -1 0
198 c0 108 1 199 1 202 0 9 121 5 195 -6z"/>
<path d="M9300 5095 l0 -555 290 0 290 0 0 55 0 55 -225 0 -225 0 0 220 0 220
220 0 220 0 0 60 0 60 -220 0 -220 0 0 165 0 165 225 0 225 0 0 55 0 55 -290
0 -290 0 0 -555z"/>
<path d="M4697 4264 c-4 -4 -7 -36 -7 -71 l0 -64 -29 22 c-24 17 -38 21 -71
16 -104 -14 -144 -138 -68 -209 25 -23 39 -28 79 -28 35 0 54 5 68 19 21 21
33 18 24 -5 -3 -9 2 -14 16 -14 21 0 21 2 19 167 -3 156 -9 189 -31 167z m-32
-149 c32 -31 34 -91 4 -129 -27 -34 -91 -37 -126 -4 -33 31 -32 100 2 133 33
34 87 34 120 0z"/>
<path d="M4843 4254 c-9 -23 13 -40 32 -24 12 10 13 16 4 26 -15 18 -28 18
-36 -2z"/>
<path d="M6223 4254 c-9 -23 13 -40 32 -24 12 10 13 16 4 26 -15 18 -28 18
-36 -2z"/>
<path d="M7779 4254 c-9 -11 -9 -18 -1 -26 14 -14 42 -3 42 16 0 20 -27 27
-41 10z"/>
<path d="M2157 4243 c-16 -16 -3 -22 51 -25 l57 -3 3 -142 c2 -118 5 -143 17
-143 13 0 15 24 15 145 l0 145 55 0 c42 0 55 3 55 15 0 13 -20 15 -123 15 -68
0 -127 -3 -130 -7z"/>
<path d="M5830 4090 l0 -162 99 4 c82 2 105 7 127 24 72 53 91 128 52 204 -34
65 -72 83 -185 88 l-93 4 0 -162z m189 112 c69 -35 93 -111 57 -180 -23 -45
-63 -62 -146 -62 l-70 0 0 130 0 130 63 0 c39 0 74 -6 96 -18z"/>
<path d="M2490 4050 c0 -100 3 -120 15 -120 12 0 15 16 15 80 0 73 3 83 25
105 13 14 33 25 45 25 11 0 20 7 20 15 0 21 -33 19 -64 -6 l-26 -20 0 20 c0
12 -6 21 -15 21 -12 0 -15 -20 -15 -120z"/>
<path d="M2718 4158 c-35 -12 -39 -44 -5 -33 77 25 124 12 129 -35 3 -24 0
-25 -63 -30 -77 -6 -99 -20 -99 -66 0 -42 30 -64 85 -64 22 0 51 7 63 16 20
14 22 14 22 0 0 -9 7 -16 15 -16 12 0 15 17 15 91 0 87 -1 92 -29 120 -32 31
-79 37 -133 17z m132 -137 c0 -51 -88 -92 -123 -56 -22 21 -22 51 1 64 9 6 41
11 70 11 44 0 52 -3 52 -19z"/>
<path d="M2997 4163 c-4 -3 -7 -57 -7 -120 0 -106 1 -113 20 -113 18 0 20 7
20 84 0 79 2 86 26 105 34 27 78 27 104 1 17 -17 20 -33 20 -105 0 -80 1 -85
21 -85 21 0 22 3 16 88 -3 48 -8 95 -12 105 -9 22 -56 47 -89 47 -32 0 -76
-20 -77 -34 0 -6 -4 -1 -9 12 -9 22 -21 28 -33 15z"/>
<path d="M3337 4150 c-22 -17 -27 -29 -25 -53 3 -34 21 -47 98 -69 37 -11 45
-17 45 -37 0 -39 -42 -45 -134 -20 -7 2 -16 -2 -18 -8 -12 -32 125 -45 165
-17 18 12 22 24 20 52 -3 34 -6 38 -48 51 -87 27 -100 34 -100 50 0 9 5 22 12
29 15 15 72 16 98 2 13 -7 21 -7 26 1 11 18 -12 32 -63 36 -39 4 -53 1 -76
-17z"/>
<path d="M3614 4151 c-64 -39 -72 -142 -14 -193 38 -35 114 -39 150 -10 30 25
18 49 -13 27 -22 -15 -73 -20 -102 -9 -21 8 -45 56 -45 89 0 38 50 85 91 85
18 0 40 -7 50 -16 17 -16 39 -12 39 6 0 16 -57 40 -92 40 -18 0 -47 -9 -64
-19z"/>
<path d="M3911 4157 c-38 -19 -66 -64 -66 -106 0 -77 46 -121 127 -121 50 0
96 26 79 43 -8 8 -14 8 -23 -1 -7 -7 -33 -12 -58 -12 -50 0 -90 28 -90 63 0
15 13 17 100 17 62 0 100 4 100 10 0 6 -6 25 -14 44 -27 65 -96 94 -155 63z
m106 -39 c13 -12 23 -30 23 -40 0 -16 -9 -18 -80 -18 -72 0 -80 2 -80 19 0 27
47 61 83 61 18 0 41 -9 54 -22z"/>
<path d="M4170 4050 c0 -100 3 -120 15 -120 12 0 15 14 15 70 0 104 23 140 88
140 55 0 72 -33 72 -134 0 -61 3 -76 15 -76 12 0 15 17 15 91 0 88 -1 92 -30
121 -28 27 -36 30 -76 25 -25 -2 -54 -13 -64 -22 -19 -17 -20 -17 -20 3 0 13
-6 22 -15 22 -12 0 -15 -20 -15 -120z"/>
<path d="M4847 4163 c-4 -3 -7 -57 -7 -120 0 -106 1 -113 20 -113 19 0 20 7
20 120 0 93 -3 120 -13 120 -8 0 -17 -3 -20 -7z"/>
<path d="M4999 4168 c0 -2 -1 -56 -2 -121 -2 -105 0 -117 16 -117 15 0 17 10
17 80 0 73 3 83 25 105 28 29 70 32 103 9 20 -14 22 -23 22 -105 0 -82 1 -89
20 -89 18 0 20 7 20 68 0 94 -14 139 -50 157 -40 21 -82 19 -113 -5 -25 -20
-25 -20 -30 0 -4 16 -25 29 -28 18z"/>
<path d="M5363 4151 c-40 -25 -53 -49 -53 -101 0 -34 6 -48 34 -76 29 -29 41
-34 79 -34 30 0 53 7 71 21 l26 20 0 -35 c0 -52 -28 -76 -88 -76 -26 0 -57 7
-69 15 -18 13 -22 13 -33 0 -20 -24 50 -48 119 -43 44 4 59 10 78 32 22 25 23
35 23 162 0 112 -2 134 -15 134 -9 0 -15 -9 -15 -22 0 -20 -1 -20 -20 -3 -30
27 -99 30 -137 6z m132 -36 c55 -54 16 -145 -62 -145 -50 0 -81 22 -89 64 -11
61 27 105 89 106 27 0 45 -7 62 -25z"/>
<path d="M6229 4166 c-2 -2 -3 -56 -1 -120 3 -93 6 -116 18 -116 11 0 14 22
14 120 0 93 -3 120 -13 120 -8 0 -16 -2 -18 -4z"/>
<path d="M6380 4050 c0 -100 3 -120 15 -120 12 0 15 16 15 80 0 73 3 83 25
105 24 25 68 33 91 17 24 -15 34 -54 34 -126 0 -61 3 -76 15 -76 12 0 15 16
15 80 0 73 3 83 25 105 30 31 77 33 105 5 17 -17 20 -33 20 -105 0 -69 3 -85
15 -85 12 0 15 17 15 91 0 87 -1 92 -29 120 -36 35 -81 38 -129 9 l-33 -20
-26 20 c-14 11 -38 20 -54 20 -34 0 -79 -19 -80 -34 0 -6 -4 -1 -9 12 -21 50
-30 20 -30 -98z"/>
<path d="M6935 4161 c-50 -21 -80 -88 -64 -145 14 -52 60 -86 118 -86 52 0
100 25 82 43 -8 8 -14 8 -23 -1 -7 -7 -33 -12 -59 -12 -39 0 -51 5 -68 26 -38
49 -31 54 80 54 l101 0 -7 32 c-10 43 -23 62 -56 82 -29 17 -71 20 -104 7z
m109 -52 c14 -17 24 -35 20 -40 -3 -5 -41 -9 -85 -9 -89 0 -99 11 -54 55 36
37 86 34 119 -6z"/>
<path d="M7190 4050 c0 -100 3 -120 15 -120 12 0 15 14 15 70 0 104 23 140 88
140 55 0 72 -33 72 -134 0 -61 3 -76 15 -76 12 0 15 17 15 91 0 88 -1 92 -30
121 -28 27 -36 30 -76 25 -25 -2 -54 -13 -64 -22 -19 -17 -20 -17 -20 3 0 13
-6 22 -15 22 -12 0 -15 -20 -15 -120z"/>
<path d="M7538 4155 c-64 -36 -35 -108 48 -121 57 -8 83 -27 68 -50 -16 -27
-61 -35 -105 -20 -25 9 -41 10 -45 4 -12 -19 17 -32 79 -36 53 -3 65 -1 85 18
26 25 29 61 5 83 -10 8 -43 21 -73 29 -46 11 -56 17 -58 37 -2 13 2 28 10 32
18 12 75 11 98 -1 22 -12 39 5 22 22 -18 18 -104 20 -134 3z"/>
<path d="M7780 4050 c0 -100 3 -120 15 -120 13 0 15 20 15 120 0 100 -2 120
-15 120 -12 0 -15 -20 -15 -120z"/>
<path d="M7968 4154 c-36 -19 -58 -63 -58 -115 0 -33 6 -47 34 -75 29 -29 41
-34 83 -34 55 0 86 17 108 60 56 108 -61 222 -167 164z m115 -34 c34 -27 44
-78 23 -118 -17 -34 -33 -42 -82 -42 -85 0 -115 113 -45 167 25 19 75 15 104
-7z"/>
<path d="M8247 4164 c-4 -4 -7 -58 -7 -121 0 -106 1 -113 20 -113 18 0 20 7
20 84 0 79 2 86 26 105 34 27 78 27 104 1 17 -17 20 -33 20 -105 0 -69 3 -85
15 -85 12 0 15 17 15 93 -1 56 -5 98 -13 108 -32 42 -93 50 -145 19 -29 -18
-33 -18 -30 -4 3 18 -13 29 -25 18z"/>
<path d="M8592 4158 c-23 -12 -36 -43 -30 -74 4 -21 33 -37 98 -56 37 -11 45
-17 45 -37 0 -39 -42 -45 -134 -20 -7 2 -16 -2 -18 -8 -11 -31 125 -45 165
-17 15 10 22 25 22 49 0 40 -6 44 -85 65 -62 16 -79 36 -55 65 14 17 72 20
100 5 22 -12 39 5 22 22 -16 16 -103 20 -130 6z"/>
<path d="M8821 3966 c-14 -17 -7 -36 14 -36 22 0 29 20 13 36 -13 13 -16 13
-27 0z"/>
</g>
</svg>
